<svg width="4rem" viewBox="0 0 55 64" fill="none" xmlns="http://www.w3.org/2000/svg">
<path id="path4" d="M53.845 49.8761C52.855 52.1133 51.689 54.1726 50.336 56.0648C48.488 58.647 46.981 60.4314 45.815 61.4233C44.011 63.0514 42.075 63.887 40.0015 63.9301C38.5165 63.9301 36.718 63.515 34.6335 62.674C32.538 61.8384 30.613 61.4233 28.853 61.4233C27.005 61.4233 25.025 61.8384 22.9075 62.674C20.7845 63.515 19.0795 63.9517 17.7705 63.9948C15.785 64.0756 13.805 63.2185 11.825 61.418C10.5655 60.3398 8.987 58.4907 7.095 55.8708C5.0655 53.0729 3.399 49.833 2.0955 46.1349C0.704 42.1457 0 38.275 0 34.5338C0 30.2427 0.946 26.5445 2.838 23.4448C4.3285 20.9542 6.3085 18.992 8.7835 17.5472C11.264 16.1079 13.937 15.3693 16.8245 15.3208C18.403 15.3208 20.471 15.8006 23.045 16.7386C25.608 17.682 27.258 18.1618 27.9785 18.1618C28.5175 18.1618 30.349 17.6011 33.4455 16.4852C36.377 15.4502 38.852 15.0243 40.8815 15.1914C46.376 15.628 50.501 17.7467 53.2455 21.5742C48.334 24.4906 45.903 28.5769 45.9525 33.8222C45.9965 37.9085 47.509 41.3047 50.479 44.0001C51.8265 45.2508 53.328 46.2211 55 46.9058C54.637 47.9408 54.252 48.9273 53.845 49.8761ZM41.25 1.28301C41.25 4.48518 40.0565 7.47169 37.6805 10.2372C34.8095 13.5256 31.339 15.4232 27.577 15.1267C27.5275 14.744 27.5 14.3397 27.5 13.9138C27.5 10.841 28.864 7.55257 31.2895 4.86252C32.4995 3.49864 34.0395 2.36658 35.904 1.46629C37.7685 0.576793 39.5285 0.0862265 41.184 0C41.228 0.431249 41.25 0.857146 41.25 1.28301Z" fill="black"/>
</svg>
