<svg width="222" height="74" viewBox="0 0 222 74" fill="none" xmlns="http://www.w3.org/2000/svg">
<g id="g19">
<path id="path7" d="M95.0043 38.4664C95.0043 48.9813 86.777 56.7263 76.6856 56.7263C66.5942 56.7263 58.3669 48.9813 58.3669 38.4664C58.3669 27.881 66.5942 20.2065 76.6856 20.2065C86.7829 20.2065 95.0043 27.881 95.0043 38.4664ZM86.9888 38.4664C86.9888 31.8976 82.2194 27.3988 76.6915 27.3988C71.1577 27.3988 66.3942 31.8917 66.3942 38.4664C66.3942 44.9706 71.1636 49.5341 76.6915 49.5341C82.2194 49.5341 86.9888 44.9647 86.9888 38.4664Z" fill="black"/>
<path id="path9" d="M134.523 38.4664C134.523 48.9813 126.296 56.7263 116.204 56.7263C106.113 56.7263 97.8857 48.9813 97.8857 38.4664C97.8857 27.8869 106.113 20.2065 116.204 20.2065C126.302 20.2065 134.523 27.881 134.523 38.4664ZM126.508 38.4664C126.508 31.8976 121.738 27.3988 116.21 27.3988C110.676 27.3988 105.913 31.8917 105.913 38.4664C105.913 44.9706 110.682 49.5341 116.21 49.5341C121.738 49.5341 126.508 44.9647 126.508 38.4664Z" fill="black"/>
<path id="path11" d="M172.395 21.3121V54.0975C172.395 67.5822 164.444 73.0925 155.041 73.0925C146.19 73.0925 140.862 67.1705 138.857 62.3306L145.838 59.4255C147.078 62.3953 150.125 65.9062 155.035 65.9062C161.051 65.9062 164.786 62.1954 164.786 55.2031V52.5744H164.503C162.71 54.7915 159.252 56.7262 154.888 56.7262C145.755 56.7204 137.393 48.7695 137.393 38.5369C137.393 28.2279 145.755 20.2124 154.888 20.2124C159.246 20.2124 162.704 22.1472 164.503 24.2937H164.786V21.3239H172.401L172.395 21.3121ZM165.35 38.5369C165.35 32.1092 161.063 27.4046 155.6 27.4046C150.066 27.4046 145.432 32.1034 145.432 38.5369C145.432 44.9 150.066 49.534 155.6 49.534C161.063 49.534 165.35 44.9 165.35 38.5369Z" fill="black"/>
<path id="path13" d="M184.951 2.09351V55.6087H177.129V2.09351H184.951Z" fill="black"/>
<path id="path15" d="M215.431 44.4763L221.653 48.6282C219.642 51.598 214.802 56.7202 206.439 56.7202C196.066 56.7202 188.321 48.6988 188.321 38.4603C188.321 27.5985 196.136 20.2004 205.545 20.2004C215.019 20.2004 219.659 27.7396 221.171 31.815L222 33.8909L197.589 44C199.459 47.6637 202.364 49.5338 206.439 49.5338C210.526 49.5338 213.355 47.5226 215.431 44.4763ZM196.271 37.9075L212.591 31.1328C211.691 28.8511 208.992 27.2633 205.816 27.2633C201.741 27.2633 196.066 30.8623 196.271 37.9075Z" fill="black"/>
<path id="path17" d="M28.763 33.7205V25.9696H54.8678C55.1207 27.3222 55.2559 28.9159 55.2559 30.6448C55.2559 36.455 53.6681 43.6472 48.5459 48.7635C43.5649 53.9504 37.2019 56.7144 28.7688 56.7144C13.1436 56.7144 0 43.9883 0 28.3572C0 12.726 13.1377 0 28.7688 0C37.4136 0 43.5708 3.39322 48.199 7.81557L42.7298 13.2847C39.4131 10.1738 34.9143 7.75088 28.7571 7.75088C17.3483 7.75088 8.4213 16.9484 8.4213 28.3572C8.4213 39.7659 17.3483 48.9635 28.7571 48.9635C36.161 48.9635 40.3716 45.9937 43.0768 43.2885C45.2645 41.1009 46.7053 37.9723 47.2757 33.6969L28.763 33.7205Z" fill="black"/>
</g>
</svg>
