<svg width="194" height="53" viewBox="0 0 194 53" fill="none" xmlns="http://www.w3.org/2000/svg">
<g id="https___upload.wikimedia.org_wikipedia_commons_0_0c_Netflix_2014_logo.svg-0 1">
<g id="layer1">
<g id="g3235">
<path id="path3015" d="M165.605 49.284C168.308 49.5452 171.007 49.827 173.701 50.1191L179.65 35.4313L185.304 51.4725C188.206 51.8366 191.104 52.2171 193.996 52.6161L184.084 24.4848L194 0.000244141H185.602L185.516 0.119557L180.16 13.3471L175.458 0.000244141H167.167L175.727 24.2915L165.605 49.284Z" fill="#B81D24"/>
<path id="path3019" d="M159.333 48.7091V0.0012207H151.044V48.0263C153.811 48.2382 156.575 48.4685 159.333 48.7091Z" fill="#B81D24"/>
<path id="path3023" d="M97.0736 45.9845C99.3114 45.9845 101.545 46.001 103.777 46.0196V28.1251H113.734V20.5046H103.777V7.62877H115.244V0H95.4548V45.9908C95.9937 45.9908 96.5326 45.9842 97.0736 45.9842" fill="#B81D24"/>
<path id="path3035" d="M71.3394 46.4502C74.0997 46.3515 76.8641 46.2693 79.6326 46.2014V7.6296H87.3786V0.000732422H63.5913V7.6296H71.3394V46.4502Z" fill="#B81D24"/>
<path id="path3039" d="M7.95176 51.5873V22.5675L17.7649 50.4149C20.7823 50.0755 23.8059 49.7568 26.8356 49.4565V0.00195312H18.8838V30.0605L8.29317 0.00195312H7.95176H0V52.6301H0.049362C2.678 52.266 5.31284 51.9205 7.95176 51.5873Z" fill="#B81D24"/>
<path id="path3051" d="M55.6004 7.62911V0.000244141H35.8096V40.993V48.6238V48.6304C42.377 48.0627 48.9671 47.5876 55.584 47.2009V47.1944V44.9956V39.5655C51.7582 39.7876 47.9408 40.0448 44.1315 40.3287V28.1275H54.0886V20.5028H44.1315V7.62911H55.6004Z" fill="#B81D24"/>
<path id="path3055" d="M131.671 39.2012V0H123.347V38.8412V46.4701V46.4783C129.968 46.721 136.564 47.0604 143.138 47.4862V47.4763V45.0121V39.8475C139.322 39.6006 135.501 39.3867 131.671 39.2016" fill="#B81D24"/>
</g>
</g>
</g>
</svg>
