<svg width="339" height="56" viewBox="0 0 339 56" fill="none" xmlns="http://www.w3.org/2000/svg">
<g id="https___upload.wikimedia.org_wikipedia_commons_8_8d_Uber_logotype.svg-0 1">
<path id="Vector" d="M47.741 4.76095V31.2979C47.741 40.3789 43.36 45.7459 30.203 45.7459C17.008 45.7459 12.604 40.3789 12.604 31.2979V12.6439C12.435 8.22195 8.81001 4.66895 4.36401 4.66895V9.81994C5.97501 9.81994 7.25701 11.0719 7.40901 12.6439V33.1119C7.40901 43.6329 15.661 51.1099 30.202 51.1099C44.721 51.1099 52.94 43.6319 52.94 33.1119V4.76095H47.741Z" fill="black"/>
<path id="Vector_2" d="M198.803 44.9949V32.5619C198.803 30.8549 200.254 29.4529 201.936 29.4199H224.59V24.1809H201.858C200.758 24.2129 199.744 24.4329 198.803 24.8389V9.86388H235.775V4.65088H193.551V50.2069H237.313V44.9949H198.803Z" fill="black"/>
<path id="Vector_3" d="M292.529 27.4689C291.429 27.4689 290.39 27.6939 289.429 28.0849L289.384 9.56688L317.93 9.55588C322.885 9.55588 326.89 13.5499 326.89 18.5109C326.89 23.4659 322.885 27.4849 317.93 27.4849L292.529 27.4689ZM332.445 45.3119C331.191 46.3189 329.406 46.1159 328.319 44.9609L318.354 32.3079C325.795 32.0789 331.751 25.9819 331.751 18.4999C331.751 10.8419 325.548 4.65088 317.901 4.65088H284.172V50.2079H289.383L289.433 35.3649C289.49 33.7109 290.889 32.3329 292.581 32.3329L311.765 32.3379L324.229 48.1649C327.097 51.5549 332.134 52.1199 335.634 49.3689L332.445 45.3119Z" fill="black"/>
<path id="Vector_4" d="M133.661 45.3119L104.901 45.2869V32.3649C104.922 30.6399 106.354 29.1729 108.066 29.1729L133.662 29.1669C138.122 29.1669 141.721 32.7769 141.721 37.2149C141.72 41.7029 138.121 45.3119 133.661 45.3119ZM104.901 9.56688L133.793 9.59988C137.841 9.59988 141.116 12.8849 141.116 16.9399C141.116 20.9719 137.841 24.2519 133.793 24.2519H107.632C106.678 24.3169 105.739 24.5369 104.901 24.8989V9.56688ZM141.171 26.6669C144.105 24.4329 146.027 20.9109 146.027 16.9179C146.027 10.1659 140.544 4.66688 133.776 4.66688L99.6931 4.65088V50.2069H133.661C140.825 50.2069 146.625 44.3949 146.625 37.2149C146.625 32.8639 144.466 29.0239 141.171 26.6669Z" fill="black"/>
</g>
</svg>
