<svg width="692" height="471" viewBox="0 0 692 471" fill="none" xmlns="http://www.w3.org/2000/svg">
<g clip-path="url(#clip0)">
<path d="M581.072 0H0V312.641H581.072V0Z" fill="#3F3D56"/>
<path d="M110.168 44.0771H105.044V52.2776H110.168V44.0771Z" fill="#6C63FF"/>
<path d="M127.59 42.0271H122.466V50.2275H127.59V42.0271Z" fill="#6C63FF"/>
<path d="M136.813 42.0271H131.689V50.2275H136.813V42.0271Z" fill="#6C63FF"/>
<path d="M136.813 66.6284H131.689V74.8288H136.813V66.6284Z" fill="#6C63FF"/>
<path d="M147.062 54.3276H141.938V62.528H147.062V54.3276Z" fill="#6C63FF"/>
<path d="M147.062 67.6533H141.938V75.8537H147.062V67.6533Z" fill="#6C63FF"/>
<path d="M136.813 93.2795H131.689V101.48H136.813V93.2795Z" fill="#6C63FF"/>
<path d="M147.062 106.605H141.938V114.806H147.062V106.605Z" fill="#6C63FF"/>
<path d="M136.813 156.833H131.689V165.033H136.813V156.833Z" fill="#6C63FF"/>
<path d="M127.59 106.605H122.466V114.806H127.59V106.605Z" fill="#6C63FF"/>
<path d="M110.168 57.4028H105.044V65.6032H110.168V57.4028Z" fill="#6C63FF"/>
<path d="M110.168 185.534H105.044V193.735H110.168V185.534Z" fill="#6C63FF"/>
<path d="M110.168 212.186H105.044V220.386H110.168V212.186Z" fill="#6C63FF"/>
<path d="M110.168 225.511H105.044V233.712H110.168V225.511Z" fill="#6C63FF"/>
<path d="M110.168 71.7537H102.994V72.7787H110.168V71.7537Z" fill="#6C63FF"/>
<path d="M137.838 84.0542H130.664V85.0793H137.838V84.0542Z" fill="#6C63FF"/>
<path d="M110.168 137.357H102.994V138.382H110.168V137.357Z" fill="#6C63FF"/>
<path d="M110.168 148.632H102.994V149.657H110.168V148.632Z" fill="#6C63FF"/>
<path d="M137.838 214.236H130.664V215.261H137.838V214.236Z" fill="#6C63FF"/>
<path d="M129.64 238.837H122.466V239.862H129.64V238.837Z" fill="#6C63FF"/>
<path d="M105.044 80.9792V83.0291H107.093V87.1294H105.044V89.1792H110.168V80.9792H105.044Z" fill="#6C63FF"/>
<path d="M122.466 66.6284V68.6782H124.515V72.7786H122.466V74.8284H127.59V66.6284H122.466Z" fill="#6C63FF"/>
<path d="M141.938 79.9536V82.0041H143.987V86.1044H141.938V88.1542H147.062V79.9536H141.938Z" fill="#6C63FF"/>
<path d="M141.938 119.931V121.981H143.987V126.082H141.938V128.131H147.062V119.931H141.938Z" fill="#6C63FF"/>
<path d="M141.938 133.256V135.307H143.987V139.407H141.938V141.457H147.062V133.256H141.938Z" fill="#6C63FF"/>
<path d="M141.938 92.2546V94.3045H143.987V98.4048H141.938V100.455H147.062V92.2546H141.938Z" fill="#6C63FF"/>
<path d="M131.689 54.3276V56.3781H133.739V60.4778H131.689V62.5283H136.814V54.3276H131.689Z" fill="#6C63FF"/>
<path d="M136.813 119.931H131.689V128.131H136.813V119.931Z" fill="#6C63FF"/>
<path d="M136.813 144.532H131.689V152.733H136.813V144.532Z" fill="#6C63FF"/>
<path d="M131.689 132.231V134.281H133.739V138.382H131.689V140.432H136.814V132.231H131.689Z" fill="#6C63FF"/>
<path d="M122.466 79.9536V82.0041H124.515V86.1044H122.466V88.1542H127.59V79.9536H122.466Z" fill="#6C63FF"/>
<path d="M122.466 93.2795V95.33H124.515V99.4297H122.466V101.48H127.59V93.2795H122.466Z" fill="#6C63FF"/>
<path d="M127.59 133.257H122.466V141.457H127.59V133.257Z" fill="#6C63FF"/>
<path d="M122.466 119.931V121.981H124.515V126.082H122.466V128.131H127.59V119.931H122.466Z" fill="#6C63FF"/>
<path d="M127.59 159.908H122.466V168.108H127.59V159.908Z" fill="#6C63FF"/>
<path d="M122.466 146.582V148.632H124.515V152.732H122.466V154.783H127.59V146.582H122.466Z" fill="#6C63FF"/>
<path d="M127.59 186.559H122.466V194.76H127.59V186.559Z" fill="#6C63FF"/>
<path d="M136.813 184.509H131.689V192.71H136.813V184.509Z" fill="#6C63FF"/>
<path d="M122.466 173.233V175.284H124.515V179.384H122.466V181.434H127.59V173.233H122.466Z" fill="#6C63FF"/>
<path d="M141.938 173.233V175.284H143.987V179.384H141.938V181.434H147.062V173.233H141.938Z" fill="#6C63FF"/>
<path d="M199.327 54.3276H194.203V62.528H199.327V54.3276Z" fill="#6C63FF"/>
<path d="M199.327 67.6533H194.203V75.8537H199.327V67.6533Z" fill="#6C63FF"/>
<path d="M199.327 106.605H194.203V114.806H199.327V106.605Z" fill="#6C63FF"/>
<path d="M194.203 79.9536V82.0041H196.253V86.1044H194.203V88.1542H199.327V79.9536H194.203Z" fill="#6C63FF"/>
<path d="M194.203 119.931V121.981H196.253V126.082H194.203V128.131H199.327V119.931H194.203Z" fill="#6C63FF"/>
<path d="M194.203 133.256V135.307H196.253V139.407H194.203V141.457H199.327V133.256H194.203Z" fill="#6C63FF"/>
<path d="M194.203 92.2546V94.3045H196.253V98.4048H194.203V100.455H199.327V92.2546H194.203Z" fill="#6C63FF"/>
<path d="M194.203 173.233V175.284H196.253V179.384H194.203V181.434H199.327V173.233H194.203Z" fill="#6C63FF"/>
<path d="M127.59 213.211H122.466V221.411H127.59V213.211Z" fill="#6C63FF"/>
<path d="M136.813 197.835H131.689V206.035H136.813V197.835Z" fill="#6C63FF"/>
<path d="M127.59 248.062H122.466V256.263H127.59V248.062Z" fill="#6C63FF"/>
<path d="M136.813 223.461H131.689V231.662H136.813V223.461Z" fill="#6C63FF"/>
<path d="M122.466 199.885V201.935H124.515V206.035H122.466V208.086H127.59V199.885H122.466Z" fill="#6C63FF"/>
<path d="M122.466 262.413V264.463H124.515V268.563H122.466V270.613H127.59V262.413H122.466Z" fill="#6C63FF"/>
<path d="M183.955 42.0271H178.831V50.2275H183.955V42.0271Z" fill="#6C63FF"/>
<path d="M183.955 106.605H178.831V114.806H183.955V106.605Z" fill="#6C63FF"/>
<path d="M186.005 238.837H178.831V239.862H186.005V238.837Z" fill="#6C63FF"/>
<path d="M178.831 66.6284V68.6782H180.881V72.7786H178.831V74.8284H183.955V66.6284H178.831Z" fill="#6C63FF"/>
<path d="M178.831 79.9536V82.0041H180.881V86.1044H178.831V88.1542H183.955V79.9536H178.831Z" fill="#6C63FF"/>
<path d="M178.831 93.2795V95.33H180.881V99.4297H178.831V101.48H183.955V93.2795H178.831Z" fill="#6C63FF"/>
<path d="M183.955 133.257H178.831V141.457H183.955V133.257Z" fill="#6C63FF"/>
<path d="M178.831 119.931V121.981H180.881V126.082H178.831V128.131H183.955V119.931H178.831Z" fill="#6C63FF"/>
<path d="M183.955 159.908H178.831V168.108H183.955V159.908Z" fill="#6C63FF"/>
<path d="M178.831 146.582V148.632H180.881V152.732H178.831V154.783H183.955V146.582H178.831Z" fill="#6C63FF"/>
<path d="M183.955 186.559H178.831V194.76H183.955V186.559Z" fill="#6C63FF"/>
<path d="M178.831 173.233V175.284H180.881V179.384H178.831V181.434H183.955V173.233H178.831Z" fill="#6C63FF"/>
<path d="M183.955 213.211H178.831V221.411H183.955V213.211Z" fill="#6C63FF"/>
<path d="M183.955 248.062H178.831V256.263H183.955V248.062Z" fill="#6C63FF"/>
<path d="M178.831 199.885V201.935H180.881V206.035H178.831V208.086H183.955V199.885H178.831Z" fill="#6C63FF"/>
<path d="M178.831 262.413V264.463H180.881V268.563H178.831V270.613H183.955V262.413H178.831Z" fill="#6C63FF"/>
<path d="M208.551 42.0271H203.427V50.2275H208.551V42.0271Z" fill="#6C63FF"/>
<path d="M208.551 106.605H203.427V114.806H208.551V106.605Z" fill="#6C63FF"/>
<path d="M210.6 238.837H203.427V239.862H210.6V238.837Z" fill="#6C63FF"/>
<path d="M203.427 66.6284V68.6782H205.477V72.7786H203.427V74.8284H208.551V66.6284H203.427Z" fill="#6C63FF"/>
<path d="M203.427 79.9536V82.0041H205.477V86.1044H203.427V88.1542H208.551V79.9536H203.427Z" fill="#6C63FF"/>
<path d="M203.427 93.2795V95.33H205.477V99.4297H203.427V101.48H208.551V93.2795H203.427Z" fill="#6C63FF"/>
<path d="M208.551 133.257H203.427V141.457H208.551V133.257Z" fill="#6C63FF"/>
<path d="M203.427 119.931V121.981H205.477V126.082H203.427V128.131H208.551V119.931H203.427Z" fill="#6C63FF"/>
<path d="M208.551 159.908H203.427V168.108H208.551V159.908Z" fill="#6C63FF"/>
<path d="M203.427 146.582V148.632H205.477V152.732H203.427V154.783H208.551V146.582H203.427Z" fill="#6C63FF"/>
<path d="M208.551 186.559H203.427V194.76H208.551V186.559Z" fill="#6C63FF"/>
<path d="M203.427 173.233V175.284H205.477V179.384H203.427V181.434H208.551V173.233H203.427Z" fill="#6C63FF"/>
<path d="M208.551 213.211H203.427V221.411H208.551V213.211Z" fill="#6C63FF"/>
<path d="M208.551 248.062H203.427V256.263H208.551V248.062Z" fill="#6C63FF"/>
<path d="M203.427 199.885V201.935H205.477V206.035H203.427V208.086H208.551V199.885H203.427Z" fill="#6C63FF"/>
<path d="M203.427 262.413V264.463H205.477V268.563H203.427V270.613H208.551V262.413H203.427Z" fill="#6C63FF"/>
<path d="M131.689 248.062V250.112H133.739V254.213H131.689V256.262H136.814V248.062H131.689Z" fill="#6C63FF"/>
<path d="M131.689 261.388V263.438H133.739V267.538H131.689V269.588H136.814V261.388H131.689Z" fill="#6C63FF"/>
<path d="M105.044 106.605V108.655H107.093V112.756H105.044V114.806H110.168V106.605H105.044Z" fill="#6C63FF"/>
<path d="M105.044 158.883V160.933H107.093V165.033H105.044V167.083H110.168V158.883H105.044Z" fill="#6C63FF"/>
<path d="M105.044 172.208V174.259H107.093V178.359H105.044V180.409H110.168V172.208H105.044Z" fill="#6C63FF"/>
<path d="M105.044 198.86V200.91H107.093V205.01H105.044V207.06H110.168V198.86H105.044Z" fill="#6C63FF"/>
<path d="M105.044 236.786V238.837H107.093V242.937H105.044V244.987H110.168V236.786H105.044Z" fill="#6C63FF"/>
<path d="M105.044 248.062V250.112H107.093V254.213H105.044V256.262H110.168V248.062H105.044Z" fill="#6C63FF"/>
<path d="M163.459 44.0771H158.334V52.2776H163.459V44.0771Z" fill="#6C63FF"/>
<path d="M163.459 57.4028H158.334V65.6032H163.459V57.4028Z" fill="#6C63FF"/>
<path d="M163.459 71.7537H156.285V72.7787H163.459V71.7537Z" fill="#6C63FF"/>
<path d="M163.459 137.357H156.285V138.382H163.459V137.357Z" fill="#6C63FF"/>
<path d="M163.459 148.632H156.285V149.657H163.459V148.632Z" fill="#6C63FF"/>
<path d="M158.334 80.9792V83.0291H160.384V87.1294H158.334V89.1792H163.459V80.9792H158.334Z" fill="#6C63FF"/>
<path d="M158.334 106.605V108.655H160.384V112.756H158.334V114.806H163.459V106.605H158.334Z" fill="#6C63FF"/>
<path d="M158.334 158.883V160.933H160.384V165.033H158.334V167.083H163.459V158.883H158.334Z" fill="#6C63FF"/>
<path d="M221.873 133.257H216.749V141.457H221.873V133.257Z" fill="#6C63FF"/>
<path d="M221.873 146.582H216.749V154.783H221.873V146.582Z" fill="#6C63FF"/>
<path d="M221.873 160.933H214.699V161.958H221.873V160.933Z" fill="#6C63FF"/>
<path d="M221.873 226.536H214.699V227.561H221.873V226.536Z" fill="#6C63FF"/>
<path d="M221.873 237.812H214.699V238.837H221.873V237.812Z" fill="#6C63FF"/>
<path d="M216.749 170.158V172.208H218.799V176.309H216.749V178.359H221.873V170.158H216.749Z" fill="#6C63FF"/>
<path d="M216.749 195.785V197.835H218.799V201.935H216.749V203.985H221.873V195.785H216.749Z" fill="#6C63FF"/>
<path d="M216.749 248.062V250.112H218.799V254.213H216.749V256.262H221.873V248.062H216.749Z" fill="#6C63FF"/>
<path d="M238.27 44.0771H233.146V52.2776H238.27V44.0771Z" fill="#6C63FF"/>
<path d="M255.692 42.0271H250.568V50.2275H255.692V42.0271Z" fill="#6C63FF"/>
<path d="M264.916 42.0271H259.792V50.2275H264.916V42.0271Z" fill="#6C63FF"/>
<path d="M264.916 66.6284H259.792V74.8288H264.916V66.6284Z" fill="#6C63FF"/>
<path d="M275.164 54.3276H270.04V62.528H275.164V54.3276Z" fill="#6C63FF"/>
<path d="M275.164 67.6533H270.04V75.8537H275.164V67.6533Z" fill="#6C63FF"/>
<path d="M264.916 93.2795H259.792V101.48H264.916V93.2795Z" fill="#6C63FF"/>
<path d="M275.164 106.605H270.04V114.806H275.164V106.605Z" fill="#6C63FF"/>
<path d="M264.916 156.833H259.792V165.033H264.916V156.833Z" fill="#6C63FF"/>
<path d="M255.692 106.605H250.568V114.806H255.692V106.605Z" fill="#6C63FF"/>
<path d="M238.27 57.4028H233.146V65.6032H238.27V57.4028Z" fill="#6C63FF"/>
<path d="M238.27 185.534H233.146V193.735H238.27V185.534Z" fill="#6C63FF"/>
<path d="M238.27 212.186H233.146V220.386H238.27V212.186Z" fill="#6C63FF"/>
<path d="M238.27 225.511H233.146V233.712H238.27V225.511Z" fill="#6C63FF"/>
<path d="M238.27 71.7537H231.097V72.7787H238.27V71.7537Z" fill="#6C63FF"/>
<path d="M265.941 84.0542H258.767V85.0793H265.941V84.0542Z" fill="#6C63FF"/>
<path d="M238.27 137.357H231.097V138.382H238.27V137.357Z" fill="#6C63FF"/>
<path d="M238.27 148.632H231.097V149.657H238.27V148.632Z" fill="#6C63FF"/>
<path d="M265.941 214.236H258.767V215.261H265.941V214.236Z" fill="#6C63FF"/>
<path d="M257.742 238.837H250.568V239.862H257.742V238.837Z" fill="#6C63FF"/>
<path d="M233.146 80.9792V83.0291H235.196V87.1294H233.146V89.1792H238.27V80.9792H233.146Z" fill="#6C63FF"/>
<path d="M250.568 66.6284V68.6782H252.618V72.7786H250.568V74.8284H255.692V66.6284H250.568Z" fill="#6C63FF"/>
<path d="M270.04 79.9536V82.0041H272.089V86.1044H270.04V88.1542H275.164V79.9536H270.04Z" fill="#6C63FF"/>
<path d="M270.04 119.931V121.981H272.089V126.082H270.04V128.131H275.164V119.931H270.04Z" fill="#6C63FF"/>
<path d="M270.04 133.256V135.307H272.089V139.407H270.04V141.457H275.164V133.256H270.04Z" fill="#6C63FF"/>
<path d="M270.04 92.2546V94.3045H272.089V98.4048H270.04V100.455H275.164V92.2546H270.04Z" fill="#6C63FF"/>
<path d="M259.792 54.3276V56.3781H261.841V60.4778H259.792V62.5283H264.916V54.3276H259.792Z" fill="#6C63FF"/>
<path d="M264.916 119.931H259.792V128.131H264.916V119.931Z" fill="#6C63FF"/>
<path d="M264.916 144.532H259.792V152.733H264.916V144.532Z" fill="#6C63FF"/>
<path d="M259.792 132.231V134.281H261.841V138.382H259.792V140.432H264.916V132.231H259.792Z" fill="#6C63FF"/>
<path d="M250.568 79.9536V82.0041H252.618V86.1044H250.568V88.1542H255.692V79.9536H250.568Z" fill="#6C63FF"/>
<path d="M250.568 93.2795V95.33H252.618V99.4297H250.568V101.48H255.692V93.2795H250.568Z" fill="#6C63FF"/>
<path d="M255.692 133.257H250.568V141.457H255.692V133.257Z" fill="#6C63FF"/>
<path d="M250.568 119.931V121.981H252.618V126.082H250.568V128.131H255.692V119.931H250.568Z" fill="#6C63FF"/>
<path d="M255.692 159.908H250.568V168.108H255.692V159.908Z" fill="#6C63FF"/>
<path d="M250.568 146.582V148.632H252.618V152.732H250.568V154.783H255.692V146.582H250.568Z" fill="#6C63FF"/>
<path d="M255.692 186.559H250.568V194.76H255.692V186.559Z" fill="#6C63FF"/>
<path d="M264.916 184.509H259.792V192.71H264.916V184.509Z" fill="#6C63FF"/>
<path d="M250.568 173.233V175.284H252.618V179.384H250.568V181.434H255.692V173.233H250.568Z" fill="#6C63FF"/>
<path d="M270.04 173.233V175.284H272.089V179.384H270.04V181.434H275.164V173.233H270.04Z" fill="#6C63FF"/>
<path d="M327.43 54.3276H322.305V62.528H327.43V54.3276Z" fill="#6C63FF"/>
<path d="M327.43 67.6533H322.305V75.8537H327.43V67.6533Z" fill="#6C63FF"/>
<path d="M327.43 106.605H322.305V114.806H327.43V106.605Z" fill="#6C63FF"/>
<path d="M322.306 79.9536V82.0041H324.355V86.1044H322.306V88.1542H327.43V79.9536H322.306Z" fill="#6C63FF"/>
<path d="M322.306 119.931V121.981H324.355V126.082H322.306V128.131H327.43V119.931H322.306Z" fill="#6C63FF"/>
<path d="M322.306 133.256V135.307H324.355V139.407H322.306V141.457H327.43V133.256H322.306Z" fill="#6C63FF"/>
<path d="M322.306 92.2546V94.3045H324.355V98.4048H322.306V100.455H327.43V92.2546H322.306Z" fill="#6C63FF"/>
<path d="M322.306 173.233V175.284H324.355V179.384H322.306V181.434H327.43V173.233H322.306Z" fill="#6C63FF"/>
<path d="M255.692 213.211H250.568V221.411H255.692V213.211Z" fill="#6C63FF"/>
<path d="M264.916 197.835H259.792V206.035H264.916V197.835Z" fill="#6C63FF"/>
<path d="M255.692 248.062H250.568V256.263H255.692V248.062Z" fill="#6C63FF"/>
<path d="M264.916 223.461H259.792V231.662H264.916V223.461Z" fill="#6C63FF"/>
<path d="M250.568 199.885V201.935H252.618V206.035H250.568V208.086H255.692V199.885H250.568Z" fill="#6C63FF"/>
<path d="M250.568 262.413V264.463H252.618V268.563H250.568V270.613H255.692V262.413H250.568Z" fill="#6C63FF"/>
<path d="M312.057 42.0271H306.933V50.2275H312.057V42.0271Z" fill="#6C63FF"/>
<path d="M312.057 106.605H306.933V114.806H312.057V106.605Z" fill="#6C63FF"/>
<path d="M314.107 238.837H306.933V239.862H314.107V238.837Z" fill="#6C63FF"/>
<path d="M306.933 66.6284V68.6782H308.983V72.7786H306.933V74.8284H312.057V66.6284H306.933Z" fill="#6C63FF"/>
<path d="M306.933 79.9536V82.0041H308.983V86.1044H306.933V88.1542H312.057V79.9536H306.933Z" fill="#6C63FF"/>
<path d="M306.933 93.2795V95.33H308.983V99.4297H306.933V101.48H312.057V93.2795H306.933Z" fill="#6C63FF"/>
<path d="M312.057 133.257H306.933V141.457H312.057V133.257Z" fill="#6C63FF"/>
<path d="M306.933 119.931V121.981H308.983V126.082H306.933V128.131H312.057V119.931H306.933Z" fill="#6C63FF"/>
<path d="M312.057 159.908H306.933V168.108H312.057V159.908Z" fill="#6C63FF"/>
<path d="M306.933 146.582V148.632H308.983V152.732H306.933V154.783H312.057V146.582H306.933Z" fill="#6C63FF"/>
<path d="M312.057 186.559H306.933V194.76H312.057V186.559Z" fill="#6C63FF"/>
<path d="M306.933 173.233V175.284H308.983V179.384H306.933V181.434H312.057V173.233H306.933Z" fill="#6C63FF"/>
<path d="M312.057 213.211H306.933V221.411H312.057V213.211Z" fill="#6C63FF"/>
<path d="M312.057 248.062H306.933V256.263H312.057V248.062Z" fill="#6C63FF"/>
<path d="M306.933 199.885V201.935H308.983V206.035H306.933V208.086H312.057V199.885H306.933Z" fill="#6C63FF"/>
<path d="M306.933 262.413V264.463H308.983V268.563H306.933V270.613H312.057V262.413H306.933Z" fill="#6C63FF"/>
<path d="M336.653 42.0271H331.529V50.2275H336.653V42.0271Z" fill="#6C63FF"/>
<path d="M336.653 106.605H331.529V114.806H336.653V106.605Z" fill="#6C63FF"/>
<path d="M338.703 238.837H331.529V239.862H338.703V238.837Z" fill="#6C63FF"/>
<path d="M331.529 66.6284V68.6782H333.579V72.7786H331.529V74.8284H336.653V66.6284H331.529Z" fill="#6C63FF"/>
<path d="M331.529 79.9536V82.0041H333.579V86.1044H331.529V88.1542H336.653V79.9536H331.529Z" fill="#6C63FF"/>
<path d="M331.529 93.2795V95.33H333.579V99.4297H331.529V101.48H336.653V93.2795H331.529Z" fill="#6C63FF"/>
<path d="M336.653 133.257H331.529V141.457H336.653V133.257Z" fill="#6C63FF"/>
<path d="M331.529 119.931V121.981H333.579V126.082H331.529V128.131H336.653V119.931H331.529Z" fill="#6C63FF"/>
<path d="M336.653 159.908H331.529V168.108H336.653V159.908Z" fill="#6C63FF"/>
<path d="M331.529 146.582V148.632H333.579V152.732H331.529V154.783H336.653V146.582H331.529Z" fill="#6C63FF"/>
<path d="M336.653 186.559H331.529V194.76H336.653V186.559Z" fill="#6C63FF"/>
<path d="M331.529 173.233V175.284H333.579V179.384H331.529V181.434H336.653V173.233H331.529Z" fill="#6C63FF"/>
<path d="M336.653 213.211H331.529V221.411H336.653V213.211Z" fill="#6C63FF"/>
<path d="M336.653 248.062H331.529V256.263H336.653V248.062Z" fill="#6C63FF"/>
<path d="M331.529 199.885V201.935H333.579V206.035H331.529V208.086H336.653V199.885H331.529Z" fill="#6C63FF"/>
<path d="M331.529 262.413V264.463H333.579V268.563H331.529V270.613H336.653V262.413H331.529Z" fill="#6C63FF"/>
<path d="M259.792 248.062V250.112H261.841V254.213H259.792V256.262H264.916V248.062H259.792Z" fill="#6C63FF"/>
<path d="M259.792 261.388V263.438H261.841V267.538H259.792V269.588H264.916V261.388H259.792Z" fill="#6C63FF"/>
<path d="M233.146 106.605V108.655H235.196V112.756H233.146V114.806H238.27V106.605H233.146Z" fill="#6C63FF"/>
<path d="M233.146 158.883V160.933H235.196V165.033H233.146V167.083H238.27V158.883H233.146Z" fill="#6C63FF"/>
<path d="M233.146 172.208V174.259H235.196V178.359H233.146V180.409H238.27V172.208H233.146Z" fill="#6C63FF"/>
<path d="M233.146 198.86V200.91H235.196V205.01H233.146V207.06H238.27V198.86H233.146Z" fill="#6C63FF"/>
<path d="M233.146 236.786V238.837H235.196V242.937H233.146V244.987H238.27V236.786H233.146Z" fill="#6C63FF"/>
<path d="M233.146 248.062V250.112H235.196V254.213H233.146V256.262H238.27V248.062H233.146Z" fill="#6C63FF"/>
<path d="M291.561 44.0771H286.437V52.2776H291.561V44.0771Z" fill="#6C63FF"/>
<path d="M291.561 57.4028H286.437V65.6032H291.561V57.4028Z" fill="#6C63FF"/>
<path d="M291.561 71.7537H284.387V72.7787H291.561V71.7537Z" fill="#6C63FF"/>
<path d="M291.561 137.357H284.387V138.382H291.561V137.357Z" fill="#6C63FF"/>
<path d="M291.561 148.632H284.387V149.657H291.561V148.632Z" fill="#6C63FF"/>
<path d="M286.437 80.9792V83.0291H288.487V87.1294H286.437V89.1792H291.561V80.9792H286.437Z" fill="#6C63FF"/>
<path d="M286.437 106.605V108.655H288.487V112.756H286.437V114.806H291.561V106.605H286.437Z" fill="#6C63FF"/>
<path d="M286.437 158.883V160.933H288.487V165.033H286.437V167.083H291.561V158.883H286.437Z" fill="#6C63FF"/>
<path d="M349.976 133.257H344.852V141.457H349.976V133.257Z" fill="#6C63FF"/>
<path d="M349.976 146.582H344.852V154.783H349.976V146.582Z" fill="#6C63FF"/>
<path d="M349.976 160.933H342.802V161.958H349.976V160.933Z" fill="#6C63FF"/>
<path d="M349.976 226.536H342.802V227.561H349.976V226.536Z" fill="#6C63FF"/>
<path d="M349.976 237.812H342.802V238.837H349.976V237.812Z" fill="#6C63FF"/>
<path d="M344.851 170.158V172.208H346.901V176.309H344.851V178.359H349.975V170.158H344.851Z" fill="#6C63FF"/>
<path d="M344.851 195.785V197.835H346.901V201.935H344.851V203.985H349.975V195.785H344.851Z" fill="#6C63FF"/>
<path d="M344.851 248.062V250.112H346.901V254.213H344.851V256.262H349.975V248.062H344.851Z" fill="#6C63FF"/>
<path d="M366.373 44.0771H361.249V52.2776H366.373V44.0771Z" fill="#6C63FF"/>
<path d="M383.795 42.0271H378.67V50.2275H383.795V42.0271Z" fill="#6C63FF"/>
<path d="M393.018 42.0271H387.894V50.2275H393.018V42.0271Z" fill="#6C63FF"/>
<path d="M393.018 66.6284H387.894V74.8288H393.018V66.6284Z" fill="#6C63FF"/>
<path d="M403.266 54.3276H398.142V62.528H403.266V54.3276Z" fill="#6C63FF"/>
<path d="M403.266 67.6533H398.142V75.8537H403.266V67.6533Z" fill="#6C63FF"/>
<path d="M393.018 93.2795H387.894V101.48H393.018V93.2795Z" fill="#6C63FF"/>
<path d="M403.266 106.605H398.142V114.806H403.266V106.605Z" fill="#6C63FF"/>
<path d="M393.018 156.833H387.894V165.033H393.018V156.833Z" fill="#6C63FF"/>
<path d="M383.795 106.605H378.67V114.806H383.795V106.605Z" fill="#6C63FF"/>
<path d="M366.373 57.4028H361.249V65.6032H366.373V57.4028Z" fill="#6C63FF"/>
<path d="M366.373 185.534H361.249V193.735H366.373V185.534Z" fill="#6C63FF"/>
<path d="M366.373 212.186H361.249V220.386H366.373V212.186Z" fill="#6C63FF"/>
<path d="M366.373 225.511H361.249V233.712H366.373V225.511Z" fill="#6C63FF"/>
<path d="M366.373 71.7537H359.199V72.7787H366.373V71.7537Z" fill="#6C63FF"/>
<path d="M394.043 84.0542H386.869V85.0793H394.043V84.0542Z" fill="#6C63FF"/>
<path d="M366.373 137.357H359.199V138.382H366.373V137.357Z" fill="#6C63FF"/>
<path d="M366.373 148.632H359.199V149.657H366.373V148.632Z" fill="#6C63FF"/>
<path d="M394.043 214.236H386.869V215.261H394.043V214.236Z" fill="#6C63FF"/>
<path d="M385.844 238.837H378.67V239.862H385.844V238.837Z" fill="#6C63FF"/>
<path d="M361.248 80.9792V83.0291H363.298V87.1294H361.248V89.1792H366.373V80.9792H361.248Z" fill="#6C63FF"/>
<path d="M378.67 66.6284V68.6782H380.72V72.7786H378.67V74.8284H383.794V66.6284H378.67Z" fill="#6C63FF"/>
<path d="M398.142 79.9536V82.0041H400.191V86.1044H398.142V88.1542H403.266V79.9536H398.142Z" fill="#6C63FF"/>
<path d="M398.142 119.931V121.981H400.191V126.082H398.142V128.131H403.266V119.931H398.142Z" fill="#6C63FF"/>
<path d="M398.142 133.256V135.307H400.191V139.407H398.142V141.457H403.266V133.256H398.142Z" fill="#6C63FF"/>
<path d="M398.142 92.2546V94.3045H400.191V98.4048H398.142V100.455H403.266V92.2546H398.142Z" fill="#6C63FF"/>
<path d="M387.894 54.3276V56.3781H389.943V60.4778H387.894V62.5283H393.018V54.3276H387.894Z" fill="#6C63FF"/>
<path d="M393.018 119.931H387.894V128.131H393.018V119.931Z" fill="#6C63FF"/>
<path d="M393.018 144.532H387.894V152.733H393.018V144.532Z" fill="#6C63FF"/>
<path d="M387.894 132.231V134.281H389.943V138.382H387.894V140.432H393.018V132.231H387.894Z" fill="#6C63FF"/>
<path d="M378.67 79.9536V82.0041H380.72V86.1044H378.67V88.1542H383.794V79.9536H378.67Z" fill="#6C63FF"/>
<path d="M378.67 93.2795V95.33H380.72V99.4297H378.67V101.48H383.794V93.2795H378.67Z" fill="#6C63FF"/>
<path d="M383.795 133.257H378.67V141.457H383.795V133.257Z" fill="#6C63FF"/>
<path d="M378.67 119.931V121.981H380.72V126.082H378.67V128.131H383.794V119.931H378.67Z" fill="#6C63FF"/>
<path d="M383.795 159.908H378.67V168.108H383.795V159.908Z" fill="#6C63FF"/>
<path d="M378.67 146.582V148.632H380.72V152.732H378.67V154.783H383.794V146.582H378.67Z" fill="#6C63FF"/>
<path d="M383.795 186.559H378.67V194.76H383.795V186.559Z" fill="#6C63FF"/>
<path d="M393.018 184.509H387.894V192.71H393.018V184.509Z" fill="#6C63FF"/>
<path d="M378.67 173.233V175.284H380.72V179.384H378.67V181.434H383.794V173.233H378.67Z" fill="#6C63FF"/>
<path d="M398.142 173.233V175.284H400.191V179.384H398.142V181.434H403.266V173.233H398.142Z" fill="#6C63FF"/>
<path d="M455.532 54.3276H450.408V62.528H455.532V54.3276Z" fill="#6C63FF"/>
<path d="M455.532 67.6533H450.408V75.8537H455.532V67.6533Z" fill="#6C63FF"/>
<path d="M455.532 106.605H450.408V114.806H455.532V106.605Z" fill="#6C63FF"/>
<path d="M450.408 79.9536V82.0041H452.458V86.1044H450.408V88.1542H455.532V79.9536H450.408Z" fill="#6C63FF"/>
<path d="M450.408 119.931V121.981H452.458V126.082H450.408V128.131H455.532V119.931H450.408Z" fill="#6C63FF"/>
<path d="M450.408 133.256V135.307H452.458V139.407H450.408V141.457H455.532V133.256H450.408Z" fill="#6C63FF"/>
<path d="M450.408 92.2546V94.3045H452.458V98.4048H450.408V100.455H455.532V92.2546H450.408Z" fill="#6C63FF"/>
<path d="M450.408 173.233V175.284H452.458V179.384H450.408V181.434H455.532V173.233H450.408Z" fill="#6C63FF"/>
<path d="M383.795 213.211H378.67V221.411H383.795V213.211Z" fill="#6C63FF"/>
<path d="M393.018 197.835H387.894V206.035H393.018V197.835Z" fill="#6C63FF"/>
<path d="M383.795 248.062H378.67V256.263H383.795V248.062Z" fill="#6C63FF"/>
<path d="M393.018 223.461H387.894V231.662H393.018V223.461Z" fill="#6C63FF"/>
<path d="M378.67 199.885V201.935H380.72V206.035H378.67V208.086H383.794V199.885H378.67Z" fill="#6C63FF"/>
<path d="M378.67 262.413V264.463H380.72V268.563H378.67V270.613H383.794V262.413H378.67Z" fill="#6C63FF"/>
<path d="M440.16 42.0271H435.036V50.2275H440.16V42.0271Z" fill="#6C63FF"/>
<path d="M440.16 106.605H435.036V114.806H440.16V106.605Z" fill="#6C63FF"/>
<path d="M442.209 238.837H435.036V239.862H442.209V238.837Z" fill="#6C63FF"/>
<path d="M435.036 66.6284V68.6782H437.085V72.7786H435.036V74.8284H440.16V66.6284H435.036Z" fill="#6C63FF"/>
<path d="M435.036 79.9536V82.0041H437.085V86.1044H435.036V88.1542H440.16V79.9536H435.036Z" fill="#6C63FF"/>
<path d="M435.036 93.2795V95.33H437.085V99.4297H435.036V101.48H440.16V93.2795H435.036Z" fill="#6C63FF"/>
<path d="M440.16 133.257H435.036V141.457H440.16V133.257Z" fill="#6C63FF"/>
<path d="M435.036 119.931V121.981H437.085V126.082H435.036V128.131H440.16V119.931H435.036Z" fill="#6C63FF"/>
<path d="M440.16 159.908H435.036V168.108H440.16V159.908Z" fill="#6C63FF"/>
<path d="M435.036 146.582V148.632H437.085V152.732H435.036V154.783H440.16V146.582H435.036Z" fill="#6C63FF"/>
<path d="M440.16 186.559H435.036V194.76H440.16V186.559Z" fill="#6C63FF"/>
<path d="M435.036 173.233V175.284H437.085V179.384H435.036V181.434H440.16V173.233H435.036Z" fill="#6C63FF"/>
<path d="M440.16 213.211H435.036V221.411H440.16V213.211Z" fill="#6C63FF"/>
<path d="M440.16 248.062H435.036V256.263H440.16V248.062Z" fill="#6C63FF"/>
<path d="M435.036 199.885V201.935H437.085V206.035H435.036V208.086H440.16V199.885H435.036Z" fill="#6C63FF"/>
<path d="M435.036 262.413V264.463H437.085V268.563H435.036V270.613H440.16V262.413H435.036Z" fill="#6C63FF"/>
<path d="M464.755 42.0271H459.631V50.2275H464.755V42.0271Z" fill="#6C63FF"/>
<path d="M464.755 106.605H459.631V114.806H464.755V106.605Z" fill="#6C63FF"/>
<path d="M466.805 238.837H459.631V239.862H466.805V238.837Z" fill="#6C63FF"/>
<path d="M459.632 66.6284V68.6782H461.681V72.7786H459.632V74.8284H464.756V66.6284H459.632Z" fill="#6C63FF"/>
<path d="M459.632 79.9536V82.0041H461.681V86.1044H459.632V88.1542H464.756V79.9536H459.632Z" fill="#6C63FF"/>
<path d="M459.632 93.2795V95.33H461.681V99.4297H459.632V101.48H464.756V93.2795H459.632Z" fill="#6C63FF"/>
<path d="M464.755 133.257H459.631V141.457H464.755V133.257Z" fill="#6C63FF"/>
<path d="M459.632 119.931V121.981H461.681V126.082H459.632V128.131H464.756V119.931H459.632Z" fill="#6C63FF"/>
<path d="M464.755 159.908H459.631V168.108H464.755V159.908Z" fill="#6C63FF"/>
<path d="M459.632 146.582V148.632H461.681V152.732H459.632V154.783H464.756V146.582H459.632Z" fill="#6C63FF"/>
<path d="M464.755 186.559H459.631V194.76H464.755V186.559Z" fill="#6C63FF"/>
<path d="M459.632 173.233V175.284H461.681V179.384H459.632V181.434H464.756V173.233H459.632Z" fill="#6C63FF"/>
<path d="M464.755 213.211H459.631V221.411H464.755V213.211Z" fill="#6C63FF"/>
<path d="M464.755 248.062H459.631V256.263H464.755V248.062Z" fill="#6C63FF"/>
<path d="M459.632 199.885V201.935H461.681V206.035H459.632V208.086H464.756V199.885H459.632Z" fill="#6C63FF"/>
<path d="M459.632 262.413V264.463H461.681V268.563H459.632V270.613H464.756V262.413H459.632Z" fill="#6C63FF"/>
<path d="M387.894 248.062V250.112H389.943V254.213H387.894V256.262H393.018V248.062H387.894Z" fill="#6C63FF"/>
<path d="M387.894 261.388V263.438H389.943V267.538H387.894V269.588H393.018V261.388H387.894Z" fill="#6C63FF"/>
<path d="M361.248 106.605V108.655H363.298V112.756H361.248V114.806H366.373V106.605H361.248Z" fill="#6C63FF"/>
<path d="M361.248 158.883V160.933H363.298V165.033H361.248V167.083H366.373V158.883H361.248Z" fill="#6C63FF"/>
<path d="M361.248 172.208V174.259H363.298V178.359H361.248V180.409H366.373V172.208H361.248Z" fill="#6C63FF"/>
<path d="M361.248 198.86V200.91H363.298V205.01H361.248V207.06H366.373V198.86H361.248Z" fill="#6C63FF"/>
<path d="M361.248 236.786V238.837H363.298V242.937H361.248V244.987H366.373V236.786H361.248Z" fill="#6C63FF"/>
<path d="M361.248 248.062V250.112H363.298V254.213H361.248V256.262H366.373V248.062H361.248Z" fill="#6C63FF"/>
<path d="M419.663 44.0771H414.539V52.2776H419.663V44.0771Z" fill="#6C63FF"/>
<path d="M419.663 57.4028H414.539V65.6032H419.663V57.4028Z" fill="#6C63FF"/>
<path d="M419.663 71.7537H412.49V72.7787H419.663V71.7537Z" fill="#6C63FF"/>
<path d="M419.663 137.357H412.49V138.382H419.663V137.357Z" fill="#6C63FF"/>
<path d="M419.663 148.632H412.49V149.657H419.663V148.632Z" fill="#6C63FF"/>
<path d="M414.539 80.9792V83.0291H416.589V87.1294H414.539V89.1792H419.663V80.9792H414.539Z" fill="#6C63FF"/>
<path d="M414.539 106.605V108.655H416.589V112.756H414.539V114.806H419.663V106.605H414.539Z" fill="#6C63FF"/>
<path d="M414.539 158.883V160.933H416.589V165.033H414.539V167.083H419.663V158.883H414.539Z" fill="#6C63FF"/>
<path d="M478.078 133.257H472.954V141.457H478.078V133.257Z" fill="#6C63FF"/>
<path d="M478.078 146.582H472.954V154.783H478.078V146.582Z" fill="#6C63FF"/>
<path d="M478.078 160.933H470.904V161.958H478.078V160.933Z" fill="#6C63FF"/>
<path d="M478.078 226.536H470.904V227.561H478.078V226.536Z" fill="#6C63FF"/>
<path d="M478.078 237.812H470.904V238.837H478.078V237.812Z" fill="#6C63FF"/>
<path d="M472.954 170.158V172.208H475.004V176.309H472.954V178.359H478.078V170.158H472.954Z" fill="#6C63FF"/>
<path d="M472.954 195.785V197.835H475.004V201.935H472.954V203.985H478.078V195.785H472.954Z" fill="#6C63FF"/>
<path d="M472.954 248.062V250.112H475.004V254.213H472.954V256.262H478.078V248.062H472.954Z" fill="#6C63FF"/>
<path d="M692 469.303H142.402V471H692V469.303Z" fill="#2F2E41"/>
<path d="M256.004 268.576V303.116L260.652 324.371C260.652 324.371 259.988 337.656 260.652 341.641C261.317 345.627 259.988 352.269 256.004 352.269C252.019 352.269 250.027 362.233 250.027 362.233C250.027 362.233 248.699 366.218 245.379 366.882C242.058 367.546 242.058 366.882 242.058 366.882L239.402 373.524L184.283 410.057L194.908 436.627C194.908 436.627 211.51 430.649 212.839 428.656C214.167 426.663 225.456 431.313 225.456 426.663C225.456 422.014 227.448 410.057 231.433 409.393C235.417 408.729 268.621 393.451 268.621 393.451C268.621 393.451 285.888 374.189 287.216 366.882C288.544 359.576 294.521 338.984 294.521 338.984L311.123 366.882V422.678L308.466 452.568L337.686 448.583C337.686 448.583 335.03 429.984 337.686 427.327C340.342 424.67 344.327 392.787 341.671 388.802C339.014 384.816 342.999 366.882 341.671 364.225C340.342 361.568 341.006 342.306 337.686 336.992C334.366 331.678 314.443 277.211 314.443 277.211L256.004 268.576Z" fill="#2F2E41"/>
<path d="M312.451 451.24C312.451 451.24 302.49 467.846 309.13 469.838C315.771 471.831 328.389 469.838 329.717 469.838C331.045 469.838 354.952 470.502 354.952 470.502C354.952 470.502 370.89 467.181 370.89 462.532C370.89 457.882 360.929 457.882 357.608 457.218C354.288 456.554 333.701 448.583 333.701 448.583L312.451 451.24Z" fill="#2F2E41"/>
<path d="M187.333 410.807C187.333 410.807 168.139 408.264 168.951 415.151C169.762 422.038 176.605 432.827 177.133 434.046C177.491 434.872 181.685 445.324 184.355 451.984C186.285 456.867 189.185 461.308 192.879 465.038C195.49 467.648 198.335 469.74 200.201 468.932C204.467 467.084 200.508 457.941 199.797 454.629C199.087 451.318 198.217 429.255 198.217 429.255L187.333 410.807Z" fill="#2F2E41"/>
<path d="M320.752 158.645L342.003 109.492C342.003 109.492 340.01 104.842 335.362 105.506C335.362 105.506 329.053 89.2327 317.099 89.2327C317.099 89.2327 299.169 79.2692 293.857 89.2327C293.857 89.2327 282.567 99.1962 283.231 108.495C283.895 117.795 284.559 124.437 284.559 124.437C284.559 124.437 273.934 125.765 275.926 131.079C277.919 136.393 278.583 136.393 275.926 138.386L273.27 140.379C273.27 140.379 218.151 190.196 248.699 263.262L251.355 274.554V285.181C251.355 285.181 318.428 285.846 318.428 285.181C318.428 284.517 317.099 280.532 319.756 277.875C322.412 275.218 322.412 271.233 322.412 271.233C322.412 271.233 319.756 257.948 321.084 253.962C322.412 249.977 323.076 232.707 320.42 228.722C317.764 224.736 319.092 192.853 319.092 192.853L325.068 181.561L323.076 174.919L321.084 168.276L320.752 158.645Z" fill="#8985A8"/>
<path opacity="0.1" d="M315.107 291.824C315.107 291.824 307.138 269.904 307.802 265.919C308.466 261.933 306.474 253.962 306.474 253.962L303.818 200.16C303.818 200.16 315.107 152.335 289.872 144.364C289.872 144.364 283.487 147.151 278.255 156.119C273.081 158.424 266.803 164.257 265.301 178.904C262.645 204.809 274.598 271.233 280.575 282.524C286.552 293.816 290.536 301.787 290.536 301.787L296.783 299.01C297.041 299.522 297.177 299.795 297.177 299.795L315.107 291.824Z" fill="black"/>
<path d="M318.76 152.667C319.86 152.667 320.752 151.775 320.752 150.674C320.752 149.574 319.86 148.682 318.76 148.682C317.659 148.682 316.767 149.574 316.767 150.674C316.767 151.775 317.659 152.667 318.76 152.667Z" fill="#F2F2F2"/>
<path d="M319.424 150.674H318.095V181.893H319.424V150.674Z" fill="#3F3D56"/>
<path d="M294.853 294.149L300.165 305.441C300.165 305.441 312.119 301.455 312.119 299.462C312.119 297.47 306.806 288.835 306.806 288.835L294.853 294.149Z" fill="#FFB8B8"/>
<path d="M287.216 144.364C287.216 144.364 271.942 151.006 269.285 176.911C266.629 202.817 278.583 269.24 284.559 280.532C290.536 291.824 294.521 299.794 294.521 299.794L312.451 291.824C312.451 291.824 304.482 269.904 305.146 265.919C305.81 261.933 303.818 253.962 303.818 253.962L301.161 200.16C301.161 200.16 312.451 152.335 287.216 144.364Z" fill="#8985A8"/>
</g>
<defs>
<clipPath id="clip0">
<rect width="692" height="471" fill="white"/>
</clipPath>
</defs>
</svg>
